/* XPM */
static char * qgis_xpm[] = {
"48 48 513 2",
"  	c None",
". 	c #FFFFFF",
"+ 	c #FDFEFC",
"@ 	c #FDFEFE",
"# 	c #FFFEFE",
"$ 	c #FEFEFD",
"% 	c #FBFDFA",
"& 	c #FEFDFC",
"* 	c #FFFFFD",
"= 	c #FEFFFF",
"- 	c #FBFEFF",
"; 	c #FFFEFD",
"> 	c #FFFFFB",
", 	c #FFFDFB",
"' 	c #FFFDFD",
") 	c #FEFEFA",
"! 	c #FFFEFC",
"~ 	c #FEFEFB",
"{ 	c #FFFCFD",
"] 	c #FEFEFE",
"^ 	c #FFFCFC",
"/ 	c #FAFBFB",
"( 	c #F6FCFE",
"_ 	c #FAFDFE",
": 	c #FFFCFA",
"< 	c #FFFDFE",
"[ 	c #FEFCFB",
"} 	c #FFFBFD",
"| 	c #FAFDFF",
"1 	c #F7FAFD",
"2 	c #FEFDFE",
"3 	c #FCFDFE",
"4 	c #FFFEFA",
"5 	c #FBFCFE",
"6 	c #FAFDFA",
"7 	c #F9FCF9",
"8 	c #FBFDFD",
"9 	c #FFFCFB",
"0 	c #FFFDFA",
"a 	c #FAFBF9",
"b 	c #FFFEF8",
"c 	c #FFFFFA",
"d 	c #FDFCFA",
"e 	c #FBFDFC",
"f 	c #FDFEFA",
"g 	c #FCFCFE",
"h 	c #FDFCFD",
"i 	c #F8FCFF",
"j 	c #F9FCFB",
"k 	c #FFFDF8",
"l 	c #FAFAFC",
"m 	c #FFFEFB",
"n 	c #E4F1FB",
"o 	c #BACFE2",
"p 	c #95C0E3",
"q 	c #69AFDF",
"r 	c #319DD1",
"s 	c #179ACF",
"t 	c #129ACE",
"u 	c #1298C9",
"v 	c #0A9ACD",
"w 	c #0B9ACB",
"x 	c #309ECC",
"y 	c #6BAEDB",
"z 	c #80B7DD",
"A 	c #A8CCE6",
"B 	c #F1F7FC",
"C 	c #FCFBFD",
"D 	c #FBFBFA",
"E 	c #F7F9FD",
"F 	c #C1DBED",
"G 	c #73B4DC",
"H 	c #179BCC",
"I 	c #0F98CA",
"J 	c #0D9ACD",
"K 	c #0D9ACF",
"L 	c #1298CD",
"M 	c #0C9ACE",
"N 	c #1C99CD",
"O 	c #249AD0",
"P 	c #0998CE",
"Q 	c #139AD3",
"R 	c #1B98CB",
"S 	c #299AC7",
"T 	c #71B3E1",
"U 	c #CADBEA",
"V 	c #F0F9FE",
"W 	c #FFFAF6",
"X 	c #C2DAF0",
"Y 	c #69AED8",
"Z 	c #1C99CC",
"` 	c #1098CD",
" .	c #149ACF",
"..	c #159ACE",
"+.	c #1399CB",
"@.	c #149ACD",
"#.	c #1499CD",
"$.	c #1E99CE",
"%.	c #1199CD",
"&.	c #0D9ACB",
"*.	c #1799CB",
"=.	c #0C99CF",
"-.	c #179ACE",
";.	c #1699CE",
">.	c #70AED4",
",.	c #CAE2F4",
"'.	c #FFFDFC",
").	c #FFFEF9",
"!.	c #F9FDFF",
"~.	c #F7FBF9",
"{.	c #A0C7E6",
"].	c #1799CC",
"^.	c #1198CF",
"/.	c #1E9AD0",
"(.	c #1699CB",
"_.	c #1099CC",
":.	c #129ACB",
"<.	c #1C99CE",
"[.	c #0B99CD",
"}.	c #1198CB",
"|.	c #179ACD",
"1.	c #1598C9",
"2.	c #119AD2",
"3.	c #0797CD",
"4.	c #119BD1",
"5.	c #1599CC",
"6.	c #129BCD",
"7.	c #1B98CF",
"8.	c #0B98CE",
"9.	c #1C99CF",
"0.	c #0F99C7",
"a.	c #9CC7EA",
"b.	c #FBFDFB",
"c.	c #FAFAFD",
"d.	c #FFFCF6",
"e.	c #88BADB",
"f.	c #1399C9",
"g.	c #1598CD",
"h.	c #239AD2",
"i.	c #1A98CA",
"j.	c #1498CF",
"k.	c #119ACC",
"l.	c #1999D0",
"m.	c #119CD2",
"n.	c #189ACC",
"o.	c #1897C9",
"p.	c #149CD2",
"q.	c #0F99CE",
"r.	c #1099CB",
"s.	c #179AD0",
"t.	c #1498CA",
"u.	c #87B9E0",
"v.	c #FBFCFA",
"w.	c #FEFCF7",
"x.	c #119AD0",
"y.	c #0A98CC",
"z.	c #139AD1",
"A.	c #0999CC",
"B.	c #1B99CF",
"C.	c #0B97CA",
"D.	c #119CD4",
"E.	c #0398C8",
"F.	c #2196C9",
"G.	c #1198D0",
"H.	c #1D9ACC",
"I.	c #1198CC",
"J.	c #2599CC",
"K.	c #1D9BCD",
"L.	c #169ACB",
"M.	c #2099CB",
"N.	c #1B97CC",
"O.	c #0399D5",
"P.	c #8ABFE0",
"Q.	c #FFFBFB",
"R.	c #F5FBFE",
"S.	c #FBFDF8",
"T.	c #239AD1",
"U.	c #0E98CD",
"V.	c #1599CF",
"W.	c #149ACB",
"X.	c #1F99CA",
"Y.	c #199BCD",
"Z.	c #069ACB",
"`.	c #63ACDD",
" +	c #68AED7",
".+	c #4BA1D1",
"++	c #1699D1",
"@+	c #1399CE",
"#+	c #0A99CF",
"$+	c #2397CC",
"%+	c #2399D0",
"&+	c #029ACC",
"*+	c #2699CD",
"=+	c #1099CF",
"-+	c #2099CA",
";+	c #1699CA",
">+	c #B5D2ED",
",+	c #C1D8EE",
"'+	c #0E9BCF",
")+	c #159ACA",
"!+	c #1498CB",
"~+	c #109AD2",
"{+	c #0E98CC",
"]+	c #299DD1",
"^+	c #9CC5E4",
"/+	c #EBF7FD",
"(+	c #D5E3EB",
"_+	c #71B1DA",
":+	c #1C9ACE",
"<+	c #0F98C9",
"[+	c #149BCF",
"}+	c #179BD1",
"|+	c #369DCE",
"1+	c #EDF3F7",
"2+	c #FAFDFB",
"3+	c #FCFCFC",
"4+	c #FAFBF7",
"5+	c #60AAD9",
"6+	c #0A98CB",
"7+	c #209ACC",
"8+	c #119AD1",
"9+	c #5FA7D4",
"0+	c #F4F7FB",
"a+	c #F9FCFC",
"b+	c #A8CCE7",
"c+	c #0B9ACF",
"d+	c #0F9BCE",
"e+	c #0D97CB",
"f+	c #2099CC",
"g+	c #1E98CB",
"h+	c #049ACE",
"i+	c #8FC1E5",
"j+	c #FAFDFC",
"k+	c #B3D0E7",
"l+	c #1C9BCF",
"m+	c #1099CA",
"n+	c #5AAAD4",
"o+	c #F1F2F7",
"p+	c #FAFDF9",
"q+	c #FFFAFC",
"r+	c #FFFDF6",
"s+	c #B4D3EF",
"t+	c #2597CB",
"u+	c #1497CC",
"v+	c #0B9BCE",
"w+	c #1D9ACD",
"x+	c #1A98D1",
"y+	c #169BC9",
"z+	c #0F98CB",
"A+	c #E4F0FA",
"B+	c #FFFDF9",
"C+	c #62ABDA",
"D+	c #D2E2F4",
"E+	c #8ABAD9",
"F+	c #0A9AD2",
"G+	c #1299D0",
"H+	c #0B99CA",
"I+	c #1299D1",
"J+	c #159ACC",
"K+	c #A2C9E0",
"L+	c #F5FAFE",
"M+	c #FFFBF9",
"N+	c #D7E9F7",
"O+	c #1C9CCE",
"P+	c #0F98D0",
"Q+	c #1099D0",
"R+	c #1B98CC",
"S+	c #2498CB",
"T+	c #139BD2",
"U+	c #0098CD",
"V+	c #83BBDB",
"W+	c #FBFBFD",
"X+	c #FFFEF6",
"Y+	c #EFF6FB",
"Z+	c #2A9FD2",
"`+	c #2597CA",
" @	c #56ADDD",
".@	c #FDFBF7",
"+@	c #F9FDFE",
"@@	c #B5D0E6",
"#@	c #219ACB",
"$@	c #D8E9F8",
"%@	c #79B7E2",
"&@	c #149BD1",
"*@	c #3499C6",
"=@	c #F4F9FD",
"-@	c #8BBBDE",
";@	c #1398CC",
">@	c #1699CD",
",@	c #5EA9D5",
"'@	c #BCD5ED",
")@	c #0798CB",
"!@	c #CBDDEE",
"~@	c #61ACDB",
"{@	c #8ABDE3",
"]@	c #EBEFF8",
"^@	c #1F9BCB",
"/@	c #B2D2EA",
"(@	c #2C9FD3",
"_@	c #1C9ACB",
":@	c #ABCEED",
"<@	c #F8FCFB",
"[@	c #FAFDFD",
"}@	c #52A7D4",
"|@	c #A4CAE4",
"1@	c #FBFCF9",
"2@	c #BFD9F1",
"3@	c #68AED8",
"4@	c #9DC3DD",
"5@	c #C6DBEE",
"6@	c #6AAEDA",
"7@	c #9FC9EB",
"8@	c #149ACE",
"9@	c #C5DAEA",
"0@	c #FDFDF9",
"a@	c #64AEDC",
"b@	c #9BC5E7",
"c@	c #1399C7",
"d@	c #0C9AD1",
"e@	c #1D9ACB",
"f@	c #A2C8E2",
"g@	c #FDFDF7",
"h@	c #2D9DD1",
"i@	c #1C98CE",
"j@	c #1D98CF",
"k@	c #B7D1EC",
"l@	c #61ADE0",
"m@	c #0F98CF",
"n@	c #87BDE2",
"o@	c #FEFDF6",
"p@	c #F8FCF8",
"q@	c #DAE3F4",
"r@	c #129AC9",
"s@	c #1B99CA",
"t@	c #0A99CE",
"u@	c #CFDEED",
"v@	c #FBFBFC",
"w@	c #81B5E0",
"x@	c #54A4CF",
"y@	c #F9FCFA",
"z@	c #FFFAFB",
"A@	c #0A99C9",
"B@	c #0D9AD0",
"C@	c #209ACD",
"D@	c #0D99CC",
"E@	c #9AC3E1",
"F@	c #1298CB",
"G@	c #C3DCF0",
"H@	c #54A8D6",
"I@	c #0C99D0",
"J@	c #2099C7",
"K@	c #61B0DE",
"L@	c #CDE7F8",
"M@	c #0599D2",
"N@	c #67ADD7",
"O@	c #F8FCF9",
"P@	c #F9FCF5",
"Q@	c #C8DFF4",
"R@	c #1A98CE",
"S@	c #0D98D0",
"T@	c #A4C5DD",
"U@	c #48A3CF",
"V@	c #0899CF",
"W@	c #BCD3EE",
"X@	c #F9FCF4",
"Y@	c #56A7D3",
"Z@	c #1F99CC",
"`@	c #0E9BCC",
" #	c #209BCD",
".#	c #ECF8FE",
"+#	c #FCFAFD",
"@#	c #A7CDE5",
"##	c #1498CE",
"$#	c #0B99CC",
"%#	c #2D9ECD",
"&#	c #D1E2F4",
"*#	c #81B8DE",
"=#	c #0499CB",
"-#	c #8CBDDF",
";#	c #44A2D7",
">#	c #1699C8",
",#	c #079ACE",
"'#	c #0C99CB",
")#	c #379FCE",
"!#	c #BBD4EF",
"~#	c #F7FBFA",
"{#	c #FFFCF9",
"]#	c #F0F6F9",
"^#	c #74B2DC",
"/#	c #0599CC",
"(#	c #079AD2",
"_#	c #EEF6FC",
":#	c #F3FAFE",
"<#	c #C0D4E0",
"[#	c #0B98CF",
"}#	c #0F9BCA",
"|#	c #0B99D1",
"1#	c #149ACA",
"2#	c #1D9AC9",
"3#	c #0D9BD2",
"4#	c #5EA7D0",
"5#	c #A7CDED",
"6#	c #D6E3F2",
"7#	c #F0F6FA",
"8#	c #C6DDF3",
"9#	c #8CBEE0",
"0#	c #399FCD",
"a#	c #0298CE",
"b#	c #2498C9",
"c#	c #0F99D3",
"d#	c #B7D2EE",
"e#	c #FDFEF9",
"f#	c #F1FAFE",
"g#	c #92C0E6",
"h#	c #289ACC",
"i#	c #1C9BD1",
"j#	c #0F97CC",
"k#	c #2399CD",
"l#	c #0097CD",
"m#	c #1C9AD0",
"n#	c #1399CA",
"o#	c #1298C8",
"p#	c #149AD5",
"q#	c #1A98C9",
"r#	c #7FB9E2",
"s#	c #FFFCF8",
"t#	c #84B8DD",
"u#	c #0499CD",
"v#	c #179BCF",
"w#	c #0D9AC9",
"x#	c #0099CB",
"y#	c #2198CE",
"z#	c #7FBBDD",
"A#	c #FFF9FA",
"B#	c #88B8DB",
"C#	c #1699C9",
"D#	c #079ACF",
"E#	c #0897CA",
"F#	c #1B99D0",
"G#	c #1E9AD1",
"H#	c #1B9DCC",
"I#	c #AECFE9",
"J#	c #F6FBFB",
"K#	c #FEFEF4",
"L#	c #9BC5E6",
"M#	c #229CCE",
"N#	c #109AD3",
"O#	c #1197CC",
"P#	c #0C9CD1",
"Q#	c #1D9BCE",
"R#	c #1598D0",
"S#	c #0D9ACE",
"T#	c #1D98CD",
"U#	c #A9CDE9",
"V#	c #F9FAF9",
"W#	c #E3EEF9",
"X#	c #80BBDF",
"Y#	c #1998D0",
"Z#	c #2398CF",
"`#	c #0E9BD0",
" $	c #1F98CA",
".$	c #0B9AD0",
"+$	c #68AFDE",
"@$	c #96BEDB",
"#$	c #AACEE7",
"$$	c #CDE5F3",
"%$	c #FEF9FC",
"&$	c #E7EEF6",
"*$	c #9BC6E7",
"=$	c #5CA7DA",
"-$	c #2B99CB",
";$	c #289ACD",
">$	c #70AECD",
",$	c #C4D9EB",
"'$	c #A4C8E3",
")$	c #95C3E4",
"!$	c #7CB5DB",
"~$	c #57A8D7",
"{$	c #0A9ACC",
"]$	c #A7CDEB",
"^$	c #EAEEF0",
"/$	c #54A3CB",
"($	c #2799CC",
"_$	c #2698CD",
":$	c #0999D0",
"<$	c #2F9DCC",
"[$	c #F1F4F9",
"}$	c #FEFEF9",
"|$	c #D7E6F6",
"1$	c #8EBEE1",
"2$	c #46A4D3",
"3$	c #0298CD",
"4$	c #1399D2",
"5$	c #1E9ACA",
"6$	c #87BCE0",
"7$	c #F9FCFE",
"8$	c #CEDEEA",
"9$	c #8EBDDE",
"0$	c #41A3D4",
"a$	c #0597CA",
"b$	c #159BCF",
"c$	c #D9E7F6",
"d$	c #D5E6EF",
"e$	c #9EC3E1",
"f$	c #5BA8D4",
"g$	c #2197CB",
"h$	c #6DAFDA",
"i$	c #E5F4F8",
"j$	c #B2CFE8",
"k$	c #79B6E0",
"l$	c #6DAFD3",
"m$	c #B6D3EB",
"n$	c #FFFAF9",
". . . . . . . . + . . @ . # $ % @ @ . $ & * * * # = - # ; > ; * , ' = - $ ) & = . . . . . . . . ",
". . . . . . . . # ! * . ~ ~ = { . . ] . . . $ . ^ / . - ] . ( . _ . ! : ; * # < . . . . . . . . ",
". . . . . . . . ) * # < ^ * * * # ^ [ . ] @ . & ( = - ^ $ ( # } | 1 2 # 3 | * 4 . . . . . . . . ",
". . . . . . . . = - 5 < * 6 7 < 6 8 8 - - = $ # { = 9 0 > a $ = b c > d + = e = . . . . . . . . ",
". . . . . . . . @ = = f # { # 6 . g # ! ! . $ . { h i ( { < j k = l = * c m # 2 . . . . . . . . ",
". . . . . . . . m * . * * # # 4 n o p q r s t u v w x y z A B * # # C . . D . . . . . . . . . . ",
". . . . . . . . ( c , E # * F G H I I J K t L s M N O P Q R S T U V * W # - _ ~ . . . . . . . . ",
". . . . . . . . < 3 * = X Y Z L `  ...+.@.@.@.#.$.%.&.*.%.=.-.%.;.>.,.= '.# . > . . . . . . . . ",
"; = ).# & . !.< ~.# } {.].^./.(.w _.%.:.<.[.}.|.1.2.3.4.5.6.M 7.8.9.0.a.$ % 3 > b.| - * . # ] b ",
"$ # = ' # m ) c.# d.e.6.f.#.}.K g.h.i.j.k.l.m.f.n.o.p.(.|.q.%.r...f.s.t.u.# @ : { # . + v.{ < 8 ",
"- ' = w.< > % * } e.x.y.t z.N A.B.C.D.E.;.F.G.H.:.:.I.j.J.K._.L.=.M.N.O...P.Q.R.{ # < * b.' < !.",
"# . > S.# _ | ; {.6.y.T.U.M.l.M V.W.X.Y.Z.N `. +.+++@+J #+$+%+&+^.*+=+@.-+;+>+i 8 i < < b.$ ' - ",
"^ | ! $ . - '.,+].f.t U.'+)+!+~+0.s.{+]+^+/+{ ) # (+_+:+<+K R =.u [+[.*.1.}+|+1+).2+- < 3+$ $ . ",
"! i # { # . 4+5+^.#.z.M.)+6+7+q.8+y.9+0+$ < , = a+i m b+[+c+5.;.d+e+f+g+h+y.-.i+} m j+- < # & $ ",
"* - . { * * k+U./.}.N B.!+7+l+6+m+n+o+| } ) p+q+b - . r+s+t+@.7+u+z.f+v+w+x+y+z+A+< B+| . # * . ",
"= # 4 . ~ | C+k.(.K A.M ~+8.6+9.V.D+$ * 8 ' # a+. { # # ( E+F+z+G+H+@+@.*.@+I+J+K+L+M+f = # = . ",
"j+< . @ # N+O+P+Q+*.R+v+L S+T+U+V+W+X+i < $ g 3 . 8 # * B+Y+Z+`+#.#.#.#.#.#.#.#. @} .@~ # +@. < ",
"j+< . = 2 @@1.8+@+*.R+J @+R I.#@$@< f = ^ ~ . # # . - * # | %@&@#.#.#.#.#.#.#.#.*@=@. a ' - $ # ",
"$ < @ = ] -@}.t ;@W.g.r.#.@.>@,@q+B+3 < ' ) * < # ' 2+$ # . '@)@#.#.#.#.#.#.#.#.N !@5 = = . . . ",
"$ < @ = * ~@t @.>@J+ .+.%.J H.{@b 7 < # j+> * $ ] # b.= # . ]@^@#.#.#.#.#.#.#.#.Q+/@2 ] 8 # $ = ",
"& # = = & (@%.+.@.@. .].#.[._@:@<@- < j+[@' - * = * ' . m = # }@#.#.#.#.#.#.#.#.{+|@< # 1@< . | ",
". # . . * L ;@].@.;@q.].@.%.].2@< # * 6 . { | ' = * { . k | # 3@#.#.#.#.#.#.#.#.[+4@' * > # . 3 ",
". . $ $ = _.@+>@t ;._.].+.;.>@5@< # * ~ h # b.< $ . # * # +@' 6@#.#.#.#.#.#.#.#.u 7@# e > # $ . ",
"$ . # ! = W.;.>@_.V.%.8@(.B.;@9@2+@ ! . = # w.= * $ = 0@# a+; a@#.#.#.#.#.#.#.#.%.b@3 - ) = # ! ",
"] ; # + # c@&@^.g.v+g+d@e@V.!+f@c # - { # - - ; , | g q+g@# R.h@R+#.i@V.r.)+=+j@_@k@# % # * < . ",
"* @ h # * l@u M >@J Z m@1.@+&@n@^ 2+| * p+< < a+# o@| p@d $ q@r@n.r.=++.s@@+t@%.#+u@v@- < = * & ",
"0@- { . + w@;+%.].I ].=+;@=.{+x@= # p+a+{ y@} < . * v.; # z@:@A@%.u B@:.C@j.D@%.z++@# = . - > * ",
"$ # < 3 b.E@z.Z ..F@].#.%.%.F@5.G@3+'.{ } b.2 < ' $ # { < < H@Z I@>@I+r.8@I.J@9.K@r+g # $ e > . ",
"= g > # $ L@U.-.=+g.s 5.#.(.H.M@N@'.j | % . = [@< O@| . P@Q@G.@.G.].R@F@t@#.w+S@T@'.= ' | * = # ",
"2 _ b.< ' @ U@q.m@5.;.;@8@R _@V@@.W@) % # y@* m e = m X@. Y@q.Z@:+`@Z z._.#.P  #.#+#5 * | B+= < ",
". = 6 < < : @#C@ .*.##$#k.B.8@#.M %#&#2 { b $ * * - 3 < *#*.J.#.R =#_@z.R =...-#$ # = ) . > 2 $ ",
"c { + i q+- ) ;#;@>#;.,#'#j.=.Z G+;+)#!#~#] # ] - {#]#^#s >@Q+/#@+(#f+##M.A.)#_#. * @ * { . < S.",
"; # 3 = 9 < :#<#[#}#v+R J.|#8.1#2#;@3#(.4#5#6#7#8#9#0#a#=+b#w+[#r.*.c#:+$#R d#b _ # 3 { < e#; < ",
"+ . = = * : = f#g#h#e+i#j#>@z.>@k#B@l#s m#6+t@>@n##.L  .J+o#@.@+p#J@=+q#..r#% = - s#% * < = . <@",
"[@. # @ b.> : < +@t#J u##.5._@^.G+5.H.n.(.].v#+.U.-._@;+z+[#d@^.w#x#:+y#z#* { @ } } C # a+| A#. ",
"* ^ < ] j+b.* , # # B##. #u ,#C#D#E#..L P+G++.:.|.W.:.@.F#G#Z >#x+(#H#I#$ v.= < . J#* 8 - { . B+",
"* ' # # < @ = = K#] - L#M#N#O#4.R v#k.A.P#_.!+Q#R###9.>@#.[.$#S#T#J.U#!.< c { $ | < V#$ < i R.# ",
"$ | a+# < # = 3 . # S.b W#X#D@Y#[+F@t ;@].Z@<.z.@.5.@+[.J t <.Z#r.`# $.$+$@$#$$$; > + < . ~ B+. ",
"$ | | ' ^ . . # %$b.| { ' ' &$*$=$-$z.B.Z@k.A.m@D@K =._.+.n#k.r.>@5.;$;@[.R :+g.@+>$< Q.( [ | < ",
"{ $ $ * * [@+ ; * y@) # # > _ > S./+,$'$)$!$~$#.=+>@g+C@-.;@%.#.t R {$J+[.-.q.%.|.]$| & = . ~ ' ",
". . . . . . . . . . . . . . . . = . # # ' = i ^$*$/$J ^.<.[.=.($g._$|.;+-.:$G+@+<$[$. [@}$h * $ ",
". . . . . . . . . . . . . . . . = . # # $ = - i = 5 |$1$2$+.%.%.J+v 3$4$$.q#5$&.6$7$= . > # * . ",
". . . . . . . . . . . . . . . . . . . . . $ = = +@# { $ R.8$9$0$a$&@9.[.6+b$8.q.c$8 - < * . ! * ",
". . . . . . . . . . . . . . . . . $ $ . . . $ ' 8 - - . . C # @ d$e$f$^@g$p#@.h$m $ - # # . $ * ",
". . . . . . . . . . . . . . . . # . $ $ . . # # ; { # $ 0@' < > - { * i$j$k$l$m$m 3 * > # . = * ",
". . . . . . . . . . . . . . . . . . . $ $ . # # < [ > $ $ > d = - . [ - = # 5 * - = m b.# . . & ",
". . . . . . . . . . . . . . . . $ $ . . $ . . . O@b.# } # [@j+{ { # # < $ 7 * 2 | $ # = * - < - ",
". . . . . . . . . . . . . . . . . $ . # $ . = = } # = ) f 2 # . 7 ; = ! ; _ ' # # ) < # & [@n$| "};
